<svg width="238" height="38" viewBox="0 0 238 38" fill="none" xmlns="http://www.w3.org/2000/svg">
<path d="M95.3026 26H92.4901L97.6108 11.4545H100.864L105.991 26H103.179L99.294 14.4375H99.1804L95.3026 26ZM95.3949 20.2969H103.065V22.4134H95.3949V20.2969ZM109.507 26V11.4545H112.142V23.7912H118.549V26H109.507ZM124.85 26H122.038L127.158 11.4545H130.411L135.539 26H132.727L128.842 14.4375H128.728L124.85 26ZM124.943 20.2969H132.613V22.4134H124.943V20.2969ZM136.658 13.6634V11.4545H148.263V13.6634H143.767V26H141.154V13.6634H136.658ZM166.566 15.4531C166.5 14.8329 166.22 14.3499 165.728 14.0043C165.24 13.6586 164.606 13.4858 163.825 13.4858C163.275 13.4858 162.804 13.5687 162.411 13.7344C162.018 13.9001 161.718 14.125 161.509 14.4091C161.301 14.6932 161.194 15.0175 161.19 15.3821C161.19 15.6851 161.258 15.9479 161.396 16.1705C161.538 16.393 161.729 16.5824 161.971 16.7386C162.212 16.8902 162.48 17.018 162.773 17.1222C163.067 17.2263 163.363 17.3139 163.661 17.3849L165.025 17.7259C165.574 17.8537 166.102 18.0265 166.609 18.2443C167.12 18.4621 167.577 18.7367 167.979 19.0682C168.387 19.3996 168.709 19.7997 168.945 20.2685C169.182 20.7372 169.3 21.2865 169.3 21.9162C169.3 22.7685 169.083 23.5189 168.647 24.1676C168.211 24.8116 167.582 25.3158 166.758 25.6804C165.939 26.0402 164.947 26.2202 163.782 26.2202C162.65 26.2202 161.668 26.045 160.835 25.6946C160.006 25.3442 159.357 24.8329 158.888 24.1605C158.424 23.4882 158.174 22.669 158.136 21.7031H160.728C160.766 22.2098 160.922 22.6312 161.197 22.9673C161.471 23.3035 161.829 23.5545 162.269 23.7202C162.714 23.8859 163.211 23.9688 163.761 23.9688C164.334 23.9688 164.835 23.8835 165.266 23.7131C165.702 23.5379 166.043 23.2964 166.289 22.9886C166.535 22.6761 166.661 22.3116 166.665 21.8949C166.661 21.5161 166.549 21.2036 166.332 20.9574C166.114 20.7064 165.808 20.4981 165.415 20.3324C165.027 20.1619 164.573 20.0104 164.052 19.8778L162.397 19.4517C161.199 19.1439 160.252 18.6776 159.556 18.0526C158.865 17.4228 158.519 16.5871 158.519 15.5455C158.519 14.6884 158.751 13.938 159.215 13.294C159.684 12.6501 160.321 12.1506 161.126 11.7955C161.931 11.4356 162.842 11.2557 163.86 11.2557C164.892 11.2557 165.797 11.4356 166.573 11.7955C167.354 12.1506 167.968 12.6454 168.413 13.2798C168.858 13.9096 169.087 14.634 169.102 15.4531H166.566ZM173.25 26V11.4545H182.71V13.6634H175.884V17.6122H182.22V19.821H175.884V23.7912H182.767V26H173.25ZM186.998 26V11.4545H189.633V17.6122H196.373V11.4545H199.015V26H196.373V19.821H189.633V26H186.998ZM205.349 26H202.536L207.657 11.4545H210.91L216.038 26H213.225L209.34 14.4375H209.226L205.349 26ZM205.441 20.2969H213.111V22.4134H205.441V20.2969ZM217.156 13.6634V11.4545H228.762V13.6634H224.266V26H221.652V13.6634H217.156ZM235.631 11.4545L235.397 21.7244H233.11L232.883 11.4545H235.631ZM234.254 26.1562C233.823 26.1562 233.453 26.0047 233.146 25.7017C232.843 25.3987 232.691 25.0294 232.691 24.5938C232.691 24.1676 232.843 23.803 233.146 23.5C233.453 23.197 233.823 23.0455 234.254 23.0455C234.675 23.0455 235.04 23.197 235.347 23.5C235.66 23.803 235.816 24.1676 235.816 24.5938C235.816 24.8826 235.743 25.1454 235.596 25.3821C235.454 25.6188 235.264 25.8082 235.028 25.9503C234.796 26.0876 234.538 26.1562 234.254 26.1562Z" fill="#192655"/>
<g clip-path="url(#clip0_5_134)">
<rect x="57.6895" y="59" width="7.46806" height="72.6209" transform="rotate(-150 57.6895 59)" fill="#00A9FF"/>
<rect x="62.6895" y="61" width="7.46806" height="72.6209" transform="rotate(-150 62.6895 61)" fill="#89CFF3"/>
<rect x="40.6895" y="52" width="7.46806" height="72.6209" transform="rotate(-150 40.6895 52)" fill="#00A9FF"/>
<rect x="27.6895" y="30" width="7.46806" height="72.6209" transform="rotate(-150 27.6895 30)" fill="#89CFF3"/>
</g>
<g clip-path="url(#clip1_5_134)">
<rect width="7.46806" height="72.6209" transform="matrix(0.866025 -0.5 -0.5 -0.866025 18.3105 59)" fill="#00A9FF"/>
<rect width="7.46806" height="72.6209" transform="matrix(0.866025 -0.5 -0.5 -0.866025 13.3105 61)" fill="#89CFF3"/>
<rect width="7.46806" height="72.6209" transform="matrix(0.866025 -0.5 -0.5 -0.866025 35.3105 52)" fill="#00A9FF"/>
<rect width="7.46806" height="72.6209" transform="matrix(0.866025 -0.5 -0.5 -0.866025 48.3105 30)" fill="#89CFF3"/>
</g>
<defs>
<clipPath id="clip0_5_134">
<path d="M76 30C76 34.4183 72.4183 38 68 38L38 38L38 7.13676e-06L68 4.51408e-06C72.4183 4.12782e-06 76 3.58173 76 8L76 30Z" fill="white"/>
</clipPath>
<clipPath id="clip1_5_134">
<path d="M-6.99382e-07 30C-3.13124e-07 34.4183 3.58172 38 8 38L38 38L38 4.92632e-07L2 3.63985e-06C0.895426 3.73642e-06 -3.24378e-06 0.895435 -3.14722e-06 2L-6.99382e-07 30Z" fill="white"/>
</clipPath>
</defs>
</svg>
